<?xml version="1.0" encoding="utf-8"?>
<svg version="1.1" xmlns:xlink="http://www.w3.org/1999/xlink" width="72px" height="61px" xmlns="http://www.w3.org/2000/svg">
  <g transform="matrix(1 0 0 1 -59 -364 )">
    <path d="M 28.36875 27.7322716346154  C 30.48125 25.6671674679487  33.025 24.6346153846154  36 24.6346153846154  C 38.975 24.6346153846154  41.51875 25.6671674679487  43.63125 27.7322716346154  C 45.74375 29.7973758012821  46.8 32.2840544871795  46.8 35.1923076923077  C 46.8 38.1005608974359  45.74375 40.5872395833333  43.63125 42.65234375  C 41.51875 44.7174479166667  38.975 45.75  36 45.75  C 33.025 45.75  30.48125 44.7174479166667  28.36875 42.65234375  C 26.25625 40.5872395833333  25.2 38.1005608974359  25.2 35.1923076923077  C 25.2 32.2840544871795  26.25625 29.7973758012821  28.36875 27.7322716346154  Z M 54 9.38461538461539  L 62.4 9.38461538461539  C 65.05 9.38461538461539  67.3125 10.3010817307692  69.1875 12.1340144230769  C 71.0625 13.9669471153846  72 16.1786858974359  72 18.7692307692308  L 72 51.6153846153846  C 72 54.2059294871795  71.0625 56.4176682692308  69.1875 58.2506009615385  C 67.3125 60.0835336538462  65.05 61  62.4 61  L 9.6 61  C 6.95 61  4.6875 60.0835336538462  2.8125 58.2506009615385  C 0.9375 56.4176682692308  0 54.2059294871795  0 51.6153846153846  L 0 18.7692307692308  C 0 16.1786858974359  0.9375 13.9669471153846  2.8125 12.1340144230769  C 4.6875 10.3010817307692  6.95 9.38461538461539  9.6 9.38461538461539  L 18 9.38461538461539  L 19.9125 4.39903846153846  C 20.3875 3.20152243589743  21.25625 2.1689703525641  22.51875 1.30138221153846  C 23.78125 0.433794070512827  25.075 0  26.4 0  L 45.6 0  C 46.925 0  48.21875 0.433794070512827  49.48125 1.30138221153846  C 50.74375 2.1689703525641  51.6125 3.20152243589743  52.0875 4.39903846153846  L 54 9.38461538461539  Z M 24.13125 46.7947716346154  C 27.41875 50.0085136217949  31.375 51.6153846153846  36 51.6153846153846  C 40.625 51.6153846153846  44.58125 50.0085136217949  47.86875 46.7947716346154  C 51.15625 43.5810296474359  52.8 39.7135416666667  52.8 35.1923076923077  C 52.8 30.6710737179487  51.15625 26.8035857371795  47.86875 23.58984375  C 44.58125 20.3761017628205  40.625 18.7692307692308  36 18.7692307692308  C 31.375 18.7692307692308  27.41875 20.3761017628205  24.13125 23.58984375  C 20.84375 26.8035857371795  19.2 30.6710737179487  19.2 35.1923076923077  C 19.2 39.7135416666667  20.84375 43.5810296474359  24.13125 46.7947716346154  Z " fill-rule="nonzero" fill="#f0f0f0" stroke="none" transform="matrix(1 0 0 1 59 364 )" />
  </g>
</svg>